<?xml version="1.0" encoding="utf-8"?>
<!-- Generator: Adobe Illustrator 16.0.0, SVG Export Plug-In . SVG Version: 6.00 Build 0)  -->
<!DOCTYPE svg PUBLIC "-//W3C//DTD SVG 1.1//EN" "http://www.w3.org/Graphics/SVG/1.1/DTD/svg11.dtd">
<svg version="1.1" id="Layer_1" xmlns="http://www.w3.org/2000/svg" xmlns:xlink="http://www.w3.org/1999/xlink" x="0px" y="0px"
	 width="250px" height="250px" viewBox="128.029 -87.646 250 250" enable-background="new 128.029 -87.646 250 250"
	 xml:space="preserve">
<path fill="#F0543F" d="M377.071,31.737c-1.654-1.861-24.542-30.509-28.572-35.368c-4.035-4.86-6-3.982-8.483-3.62
	c-2.481,0.363-31.438,5.223-34.8,5.792c-3.361,0.569-5.48,1.912-3.412,4.81c1.839,2.575,20.875,29.562,25.067,35.506l-75.679,18.13
	L191.004-43.642c-2.396-3.552-2.895-4.792-8.347-4.547c-5.453,0.249-47.214,3.719-50.189,3.967
	c-2.974,0.249-6.238,1.572-3.264,8.595c2.974,7.022,50.403,109.229,51.725,112.202c1.321,2.974,4.759,7.8,12.806,5.866
	c8.246-1.98,36.838-9.442,52.46-13.536c8.256,14.951,25.092,45.275,28.206,49.621c4.157,5.801,7.018,4.84,13.4,2.907
	c4.98-1.509,77.965-27.756,81.252-29.107c3.288-1.353,5.318-2.323,3.094-5.61c-1.633-2.416-20.888-28.209-30.972-41.704
	c6.907-1.837,31.466-8.375,34.087-9.084C378.311,35.099,378.724,33.599,377.071,31.737z M239.485,59.867
	c-0.904,0.194-43.293,10.341-45.555,10.856c-2.262,0.517-2.262,0.259-2.52-0.516c-0.258-0.777-50.398-104.164-51.094-105.457
	c-0.697-1.292-0.66-2.316,0-2.316c0.66,0,40.031-3.521,41.424-3.593c1.394-0.073,1.248,0.22,1.76,1.101
	c0,0,55.534,95.856,56.502,97.535C240.971,59.156,240.389,59.673,239.485,59.867z M359,82.268c0.675,1.064,1.351,1.741-0.776,2.513
	c-2.124,0.774-71.738,24.269-73.093,24.848c-1.353,0.58-2.417,0.773-4.156-1.739c-1.74-2.514-24.389-41.71-24.389-41.71
	l73.793-19.201c1.838-0.58,2.418-0.966,3.579,0.871C335.116,49.686,358.323,81.205,359,82.268z M363.729,29.875
	c-1.653,0.363-28.751,7.085-28.751,7.085L312.819,6.554c-0.621-0.878-1.14-1.758,0.412-1.965c1.552-0.206,26.735-4.757,27.872-5.016
	s2.121-0.568,3.517,1.345c1.396,1.915,20.559,26.165,21.281,27.095C366.626,28.945,365.384,29.514,363.729,29.875z"/>
</svg>
