<?xml version="1.0" encoding="UTF-8" standalone="no"?>
<svg
   xmlns:dc="http://purl.org/dc/elements/1.1/"
   xmlns:cc="http://creativecommons.org/ns#"
   xmlns:rdf="http://www.w3.org/1999/02/22-rdf-syntax-ns#"
   xmlns:svg="http://www.w3.org/2000/svg"
   xmlns="http://www.w3.org/2000/svg"
   viewBox="0 0 666.56 666.56"
   height="666.56"
   width="666.56"
   xml:space="preserve"
   version="1.1"
   id="svg2"><metadata
     id="metadata8"><rdf:RDF><cc:Work
         rdf:about=""><dc:format>image/svg+xml</dc:format><dc:type
           rdf:resource="http://purl.org/dc/dcmitype/StillImage" /></cc:Work></rdf:RDF></metadata><defs
     id="defs6"><clipPath
       id="clipPath16"
       clipPathUnits="userSpaceOnUse"><path
         id="path18"
         d="m 0,499.92 499.92,0 L 499.92,0 0,0 0,499.92 Z" /></clipPath></defs><g
     transform="matrix(1.3333333,0,0,-1.3333333,0,666.56)"
     id="g10"><g
       id="g12"><g
         clip-path="url(#clipPath16)"
         id="g14"><g
           transform="translate(139.4858,406.8203)"
           id="g20"><path
             id="path22"
             style="fill:#71bf45;fill-opacity:1;fill-rule:evenodd;stroke:none"
             d="m 0,0 33.918,3.339 c 0,0 0.501,42.008 39.7,47.033 47.464,6.083 51.204,-37.676 51.204,-37.676 l 40.984,4.168 18.845,-172.565 L 17.753,-172.7 0,0 Z" /></g><g
           transform="translate(219.5869,320.4429)"
           id="g24"><path
             id="path26"
             style="fill:#ffffff;fill-opacity:1;fill-rule:evenodd;stroke:none"
             d="m 0,0 c 0,0 12.208,1.744 13.951,-10.173 l 4.506,-26.595 c 0,0 9.591,8.72 19.182,-1.017 0,0 10.609,10.028 20.782,-2.034 0,0 12.934,10.609 22.089,-7.993 9.156,-18.602 3.053,-48.975 3.053,-48.975 0,0 -2.762,-15.259 -2.471,-24.996 0.29,-9.737 -8.138,-9.882 -8.138,-9.882 l -45.342,-6.685 c 0,0 -5.232,-2.18 -9.737,4.505 0,0 -29.355,42.29 -52.898,61.327 0,0 -5.377,6.104 3.633,13.661 9.01,7.557 18.165,1.163 18.165,1.163 l 8.575,-7.121 -6.47,45.289 c 0,0 -3.803,16.432 11.12,19.526" /></g><g
           transform="translate(217.3467,244.8223)"
           id="g28"><path
             id="path30"
             style="fill:#c8588a;fill-opacity:1;fill-rule:evenodd;stroke:none"
             d="m 0,0 -14.743,12.509 c 0,0 -6.924,4.244 -12.286,-3.127 l -0.67,-1.564 c 0,0 17.473,-16.951 32.015,-34.115 12.566,-14.831 22.49,-30.218 22.49,-30.218 l 49.813,7.148 c 0,0 -0.447,15.413 3.35,32.837 1.47,6.744 1.769,14.726 1.181,22.119 -0.931,11.71 -4.531,23.285 -8.775,24.79 -6.925,2.457 -8.936,-0.446 -7.818,-6.031 l 0.446,-6.701 -6.254,0 c 0,0 -0.447,17.647 -9.382,17.423 -8.935,-0.223 -5.808,-15.636 -5.808,-15.636 l -5.584,0 c 0,0 0.893,16.53 -8.266,16.53 -9.158,0 -7.147,-18.987 -7.147,-18.987 l -5.362,0 -7.512,47.19 c 0,0 -0.443,5.316 -6.645,4.651 C -3.159,68.154 -2.494,58.629 -2.494,58.629 L 7.917,-11.143 0.607,-10.921 0,0 Z" /></g><g
           transform="translate(254.4688,419.6426)"
           id="g32"><path
             id="path34"
             style="fill:#ffffff;fill-opacity:1;fill-rule:evenodd;stroke:none"
             d="m 0,0 6.818,0.66 c 0,0 -6.818,35.41 -36.73,35.63 0,0 21.115,-5.059 29.912,-36.29" /></g><g
           transform="translate(176.1709,411.2847)"
           id="g36"><path
             id="path38"
             style="fill:#ffffff;fill-opacity:1;fill-rule:evenodd;stroke:none"
             d="m 0,0 c 0,0 2.859,32.551 24.853,40.469 0,0 -18.255,-16.495 -16.936,-39.589 L 0,0 Z" /></g><g
           transform="translate(186.5078,412.6045)"
           id="g40"><path
             id="path42"
             style="fill:#ffffff;fill-opacity:1;fill-rule:evenodd;stroke:none"
             d="m 0,0 c 0,0 1.989,38.167 27.272,41.128 24.414,2.86 36.95,-30.351 36.95,-35.19 L 0,0 Z" /></g><g
           transform="translate(68.6943,124.1597)"
           id="g44"><path
             id="path46"
             style="fill:#84868a;fill-opacity:1;fill-rule:nonzero;stroke:none"
             d="m 0,0 c 0.891,-0.099 1.782,-0.198 3.069,-0.198 7.425,0 12.474,4.851 12.474,14.355 0,6.831 -2.772,12.968 -11.286,12.968 C 2.475,27.125 0.99,26.928 0,26.631 L 0,0 Z m -7.524,32.076 c 3.069,0.792 6.633,1.287 10.989,1.287 6.138,0 11.385,-1.486 14.849,-4.851 3.168,-3.168 4.852,-8.019 4.852,-13.86 0,-6.138 -1.485,-10.296 -4.06,-13.662 -3.563,-4.95 -9.8,-7.425 -15.74,-7.425 -1.287,0 -2.277,0 -3.366,0.099 l 0,-27.324 -7.524,0 0,65.736 z" /></g><g
           transform="translate(108.1938,125.4468)"
           id="g48"><path
             id="path50"
             style="fill:#84868a;fill-opacity:1;fill-rule:nonzero;stroke:none"
             d="m 0,0 3.267,0 c 7.227,0 12.078,5.346 12.078,13.365 0,7.721 -3.168,12.473 -11.286,12.573 -1.584,0 -3.069,-0.1 -4.059,-0.396 L 0,0 Z m -7.524,30.789 c 3.168,0.891 7.128,1.287 10.89,1.287 6.633,0 11.583,-1.387 15.048,-4.752 3.267,-3.366 4.653,-7.822 4.653,-13.068 0,-8.514 -3.96,-14.058 -10.692,-17.226 l 0,-0.198 c 4.95,-1.485 7.524,-6.237 8.91,-14.949 1.584,-9.108 2.871,-14.751 3.861,-16.83 l -7.722,0 c -0.99,1.98 -2.277,8.316 -3.564,16.434 C 12.375,-9.306 9.504,-5.94 2.97,-5.94 l -2.97,0 0,-29.007 -7.524,0 0,65.736 z" /></g><g
           transform="translate(165.415,122.1797)"
           id="g52"><path
             id="path54"
             style="fill:#84868a;fill-opacity:1;fill-rule:nonzero;stroke:none"
             d="m 0,0 -16.73,0 0,-25.047 19.007,0 0,-6.633 -26.631,0 0,66.726 25.443,0 0,-6.633 -17.819,0 0,-21.978 L 0,6.435 0,0 Z" /></g><g
           transform="translate(174.6216,99.311)"
           id="g56"><path
             id="path58"
             style="fill:#84868a;fill-opacity:1;fill-rule:nonzero;stroke:none"
             d="m 0,0 c 2.178,-1.485 6.237,-2.673 9.504,-2.673 7.029,0 11.187,4.554 11.187,11.286 0,6.137 -3.565,9.9 -8.811,13.86 -5.346,3.663 -12.573,9.9 -12.573,18.512 0,10.098 7.029,17.523 17.622,17.523 4.157,0 7.722,-1.287 9.306,-2.475 L 24.453,49.5 c -1.683,1.188 -4.455,2.276 -7.92,2.276 -6.633,0 -9.702,-4.949 -9.702,-9.504 0,-6.632 3.465,-9.207 9.801,-13.76 8.019,-5.643 11.582,-11.781 11.582,-19.206 0,-11.484 -8.018,-18.711 -18.71,-18.711 -4.554,0 -9.306,1.485 -11.187,2.871 L 0,0 Z" /></g><g
           transform="translate(219.6655,150.3945)"
           id="g60"><path
             id="path62"
             style="fill:#84868a;fill-opacity:1;fill-rule:nonzero;stroke:none"
             d="m 0,0 -12.177,0 0,6.831 31.977,0 0,-6.831 -12.177,0 0,-59.895 -7.623,0 L 0,0 Z" /></g><g
           transform="translate(264.2148,116.6357)"
           id="g64"><path
             id="path66"
             style="fill:#84868a;fill-opacity:1;fill-rule:nonzero;stroke:none"
             d="m 0,0 -3.465,16.929 c -0.99,4.752 -1.881,10.296 -2.673,15.246 l -0.297,0 C -7.227,27.126 -8.217,21.384 -9.207,16.929 L -12.672,0 0,0 Z m -13.761,-6.138 -4.356,-19.998 -7.425,0 15.246,66.726 8.415,0 14.85,-66.726 -7.524,0 -4.356,19.998 -14.85,0 z" /></g><g
           transform="translate(284.0146,99.311)"
           id="g68"><path
             id="path70"
             style="fill:#71bf45;fill-opacity:1;fill-rule:nonzero;stroke:none"
             d="m 0,0 c 2.178,-1.485 6.237,-2.673 9.504,-2.673 7.029,0 11.186,4.554 11.186,11.286 0,6.137 -3.563,9.9 -8.81,13.86 -5.346,3.663 -12.573,9.9 -12.573,18.512 0,10.098 7.029,17.523 17.622,17.523 4.158,0 7.721,-1.287 9.305,-2.475 L 24.453,49.5 c -1.683,1.188 -4.455,2.276 -7.92,2.276 -6.633,0 -9.702,-4.949 -9.702,-9.504 0,-6.632 3.465,-9.207 9.801,-13.76 8.018,-5.643 11.583,-11.781 11.583,-19.206 0,-11.484 -8.019,-18.711 -18.711,-18.711 -4.554,0 -9.306,1.485 -11.187,2.871 L 0,0 Z" /></g><g
           transform="translate(328.8608,157.2256)"
           id="g72"><path
             id="path74"
             style="fill:#71bf45;fill-opacity:1;fill-rule:nonzero;stroke:none"
             d="m 0,0 0,-28.611 18.71,0 0,28.611 7.623,0 0,-66.726 -7.623,0 0,31.185 -18.71,0 0,-31.185 -7.623,0 L -7.623,0 0,0 Z" /></g><g
           transform="translate(372.2227,123.8628)"
           id="g76"><path
             id="path78"
             style="fill:#71bf45;fill-opacity:1;fill-rule:nonzero;stroke:none"
             d="m 0,0 c 0,-13.761 2.673,-27.423 11.187,-27.423 8.514,0 10.791,14.553 10.791,27.621 0,12.474 -2.277,27.224 -10.89,27.224 C 2.673,27.422 0,13.563 0,0 m 29.897,0.495 c 0,-25.047 -8.513,-34.65 -19.304,-34.65 -11.088,0 -18.513,11.781 -18.513,34.254 0,22.077 8.019,34.056 19.602,34.056 11.385,0 18.215,-12.375 18.215,-33.66" /></g><g
           transform="translate(418.8516,124.1597)"
           id="g80"><path
             id="path82"
             style="fill:#71bf45;fill-opacity:1;fill-rule:nonzero;stroke:none"
             d="m 0,0 c 0.891,-0.099 1.782,-0.198 3.069,-0.198 7.425,0 12.474,4.851 12.474,14.355 0,6.831 -2.772,12.968 -11.286,12.968 C 2.475,27.125 0.99,26.928 0,26.631 L 0,0 Z m -7.524,32.076 c 3.069,0.792 6.633,1.287 10.989,1.287 6.138,0 11.385,-1.486 14.849,-4.851 3.168,-3.168 4.852,-8.019 4.852,-13.86 0,-6.138 -1.485,-10.296 -4.06,-13.662 -3.563,-4.95 -9.8,-7.425 -15.74,-7.425 -1.287,0 -2.277,0 -3.366,0.099 l 0,-27.324 -7.524,0 0,65.736 z" /></g></g></g></g></svg>